<?xml version="1.0" encoding="UTF-8" standalone="no"?>
<svg
   xmlns:dc="http://purl.org/dc/elements/1.1/"
   xmlns:cc="http://creativecommons.org/ns#"
   xmlns:rdf="http://www.w3.org/1999/02/22-rdf-syntax-ns#"
   xmlns:svg="http://www.w3.org/2000/svg"
   xmlns="http://www.w3.org/2000/svg"
   xmlns:sodipodi="http://sodipodi.sourceforge.net/DTD/sodipodi-0.dtd"
   xmlns:inkscape="http://www.inkscape.org/namespaces/inkscape"
   version="1.1"
   id="svg2"
   xml:space="preserve"
   width="288.01334"
   height="92.853333"
   viewBox="0 0 288.01334 92.853333"
   sodipodi:docname="MaxiVet_Logo.eps"><metadata
     id="metadata8"><rdf:RDF><cc:Work
         rdf:about=""><dc:format>image/svg+xml</dc:format><dc:type
           rdf:resource="http://purl.org/dc/dcmitype/StillImage" /></cc:Work></rdf:RDF></metadata><defs
     id="defs6" /><sodipodi:namedview
     pagecolor="#ffffff"
     bordercolor="#666666"
     borderopacity="1"
     objecttolerance="10"
     gridtolerance="10"
     guidetolerance="10"
     inkscape:pageopacity="0"
     inkscape:pageshadow="2"
     inkscape:window-width="640"
     inkscape:window-height="480"
     id="namedview4" /><g
     id="g10"
     inkscape:groupmode="layer"
     inkscape:label="ink_ext_XXXXXX"
     transform="matrix(1.3333333,0,0,-1.3333333,0,92.853333)"><g
       id="g12"
       transform="scale(0.1)"><path
         d="M 225.203,13.5664 86.3789,327.617 H 84.5273 L 85.7656,82.6719 c 0.3985,-11.1055 1.2305,-19.6406 2.461,-25.6016 1.2382,-5.9765 4.6328,-11.1094 10.1875,-15.4219 5.5469,-4.332 14.2769,-6.4882 26.2189,-6.4882 h 3.699 c 4.106,0 7.094,-0.7188 8.949,-2.1563 1.852,-1.4414 2.981,-5.0351 3.395,-10.7891 0,-3.707 -0.926,-6.9062 -2.781,-9.5742 -1.844,-2.66794 -4.625,-4.01169 -8.325,-4.01169 l -15.429,0.625 C 95.2188,10.0859 81.6406,10.4844 73.418,10.4844 c -13.9844,0 -34.3438,-0.62502 -61.0821,-1.85549 -3.69918,0 -6.48043,1.34375 -8.32418,4.01169 -1.85547,2.668 -2.78125,5.8672 -2.78125,9.5742 0.40625,6.168 1.63672,9.8594 3.70703,11.0899 2.05469,1.2461 5.9531,1.8555 11.7227,1.8555 11.9218,0 20.664,2.1562 26.2187,6.4882 5.5508,4.3125 8.9492,9.4454 10.1797,15.4219 1.2383,5.961 2.0547,14.4961 2.4687,25.6016 l 1.2383,244.9451 c 0,12.738 -1.4453,22.313 -4.3242,28.688 -2.8828,6.379 -7.0937,10.898 -12.6484,13.566 -5.5547,2.688 -13.6797,5.035 -24.3711,7.098 -1.6446,0.414 -4.1133,0.926 -7.39846,1.551 -3.30078,0.621 -5.45703,1.851 -6.48047,3.707 C 0.511719,384.066 0,387.055 0,391.16 c 0,4.938 1.32813,8.231 4.01172,9.875 2.66797,1.649 6.87888,2.461 12.64848,2.461 24.2617,0 44.2148,-1.531 59.8437,-4.617 15.6289,-3.082 29.3091,-9.363 41.0311,-18.824 11.723,-9.461 21.488,-23.446 29.309,-41.953 L 252.961,99.9492 h 1.855 L 376.363,399.805 h 35.164 c 22.621,0 47.098,0.609 73.426,1.855 3.703,0 6.477,-1.344 8.328,-4.012 1.856,-2.683 2.782,-5.863 2.782,-9.574 -0.415,-6.168 -1.758,-9.859 -4.012,-11.105 -2.27,-1.231 -6.074,-1.836 -11.418,-1.836 -11.93,0 -20.778,-2.176 -26.531,-6.488 -5.758,-4.317 -9.356,-9.672 -10.793,-16.047 -1.45,-6.375 -2.375,-14.703 -2.782,-24.981 V 82.6719 c 0.407,-10.293 1.332,-18.6172 2.782,-24.9961 1.437,-6.375 5.035,-11.7149 10.793,-16.0274 5.753,-4.332 14.601,-6.4882 26.531,-6.4882 h 3.707 c 3.699,0 6.473,-0.7188 8.328,-2.1563 1.852,-1.4414 2.98,-5.0351 3.395,-10.7891 0,-3.707 -0.926,-6.9062 -2.782,-9.5742 -1.851,-2.66794 -4.625,-4.01169 -8.328,-4.01169 -26.328,1.23047 -51.012,1.85549 -74.039,1.85549 -23.859,0 -49.16,-0.62502 -75.887,-1.85549 -3.703,0 -6.48,1.34375 -8.336,4.01169 -1.843,2.668 -2.773,5.8672 -2.773,9.5742 0.406,6.168 1.641,9.8594 3.699,11.0899 2.055,1.2461 5.961,1.8555 11.723,1.8555 11.93,0 20.769,2.1562 26.539,6.4882 5.754,4.3125 9.348,9.6524 10.793,16.0274 1.441,6.3789 2.359,14.7031 2.773,24.9961 V 327.617 h -1.843 L 250.5,13.5664 c -1.652,-4.10546 -5.77,-6.16796 -12.344,-6.16796 -6.172,0 -10.484,2.0625 -12.953,6.16796"
         style="fill:#2d5840;fill-opacity:1;fill-rule:nonzero;stroke:none"
         id="path14" /><path
         d="m 665.73,46.8906 c 11.93,6.9805 21.383,16.5547 28.379,28.6836 6.993,12.1328 10.493,25.6058 10.493,40.4178 v 35.16 c -43.188,-3.293 -73.633,-10.277 -91.317,-20.968 -17.691,-10.707 -26.527,-27.985 -26.527,-51.8285 0,-27.9844 13.359,-41.9649 40.105,-41.9649 13.973,0 26.934,3.5 38.867,10.5 z M 547.266,24.0508 c -15.223,13.9844 -22.828,31.4687 -22.828,52.4531 0,25.9061 8.636,45.3551 25.914,58.3011 17.277,12.961 37.843,21.383 61.703,25.297 23.843,3.898 54.695,6.886 92.547,8.949 v 48.742 c 0,20.152 -5.039,35.48 -15.118,45.965 -10.082,10.484 -26.226,15.738 -48.429,15.738 -12.762,0 -23.864,-3.914 -33.325,-11.726 -9.468,-7.817 -14.187,-18.317 -14.187,-31.469 0,-6.586 1.539,-12.035 4.625,-16.348 3.086,-4.316 6.375,-7.93 9.875,-10.805 3.484,-2.875 5.242,-4.523 5.242,-4.921 0,-2.477 -2.57,-5.672 -7.711,-9.575 -5.144,-3.914 -11.418,-5.863 -18.816,-5.863 -12.34,0 -22.121,4.524 -29.313,13.582 -7.199,9.047 -10.793,19.738 -10.793,32.074 0,21.383 9.563,37.223 28.688,47.516 19.129,10.273 42.262,15.422 69.414,15.422 33.719,0 61.176,-6.379 82.367,-19.129 21.176,-12.754 31.77,-36.391 31.77,-70.941 V 63.543 c 0.41,-8.6328 3.086,-16.8594 8.023,-24.6758 4.938,-7.8164 12.961,-11.7305 24.063,-11.7305 3.289,0 5.648,-0.6094 7.093,-1.8359 1.438,-1.25 2.164,-3.918 2.164,-8.0235 0,-4.9375 -3.808,-8.53511 -11.418,-10.80464 -7.613,-2.25391 -15.117,-3.39063 -22.515,-3.39063 -15.641,0 -29.414,4.52344 -41.336,13.57027 -11.942,9.0469 -18.723,21.1758 -20.363,36.4063 C 695.965,37.0117 682.699,24.6758 664.801,16.0273 646.91,7.39844 627.676,3.08203 607.117,3.08203 c -24.683,0 -44.637,7.00387 -59.851,20.96877"
         style="fill:#2d5840;fill-opacity:1;fill-rule:nonzero;stroke:none"
         id="path16" /><path
         d="m 825.527,12.6406 c -1.648,2.668 -2.461,5.4492 -2.461,8.3282 0.399,4.9375 1.43,8.0195 3.082,9.2539 1.641,1.2461 4.11,1.8515 7.403,1.8515 9.043,0 16.441,1.2305 22.211,3.7071 5.754,2.4609 10.691,5.7539 14.808,9.8789 4.106,4.1054 10.692,11.7109 19.746,22.8203 10.274,11.5078 31.051,36.5975 62.309,75.2735 l -70.332,99.34 c -5.348,6.984 -11.012,12.433 -16.965,16.347 -5.969,3.899 -13.265,6.68 -21.902,8.329 -1.238,0.398 -3.5,0.812 -6.793,1.23 -3.293,0.414 -5.344,1.438 -6.168,3.082 -0.832,1.648 -1.231,4.523 -1.231,8.648 0,4.938 1.325,8.024 4.012,9.25 2.668,1.235 5.953,1.954 9.867,2.161 3.907,0.207 6.481,0.3 7.711,0.3 41.961,2.063 72.399,-9.461 91.317,-34.55 l 11.722,-17.274 c 10.692,-18.109 22.414,-35.578 35.168,-52.437 l 41.339,53.683 c 6.99,9.446 10.49,16.028 10.49,19.735 0,2.461 -1.85,4.109 -5.55,4.941 -3.7,0.813 -10.5,1.438 -20.36,1.852 h -3.7 c -3.3,0 -5.66,0.609 -7.1,1.839 -1.45,1.247 -2.37,4.329 -2.78,9.266 0,2.863 0.72,5.645 2.17,8.328 1.43,2.668 3.59,4.012 6.47,4.012 23.44,-1.246 40.72,-1.856 51.83,-1.856 11.51,0 29.2,0.61 53.06,1.856 2.87,0 5.14,-1.344 6.79,-4.012 1.63,-2.683 2.46,-5.465 2.46,-8.328 -0.41,-4.535 -1.44,-7.414 -3.08,-8.644 -1.65,-1.231 -3.6,-1.95 -5.87,-2.157 -2.26,-0.207 -3.8,-0.304 -4.62,-0.304 -11.94,-0.414 -20.88,-2.782 -26.84,-7.094 -5.96,-4.332 -14.91,-14.098 -26.84,-29.313 -4.12,-4.539 -10.7,-12.75 -19.74,-24.671 -16.05,-20.172 -26.75,-33.532 -32.08,-40.118 33.72,-43.593 58.81,-76.4997 75.27,-98.7145 7.81,-11.1094 15.62,-19.961 23.44,-26.5313 7.81,-6.582 16.45,-9.875 25.92,-9.875 h 3.7 c 3.28,0 5.75,-0.6054 7.41,-1.8515 1.63,-1.2344 2.66,-4.3164 3.08,-9.2539 0,-3.293 -0.93,-6.168 -2.78,-8.629 -1.85,-2.48042 -4.22,-3.71089 -7.1,-3.71089 -24.27,1.23047 -44.01,1.85549 -59.22,1.85549 -19.34,0 -41.14,-0.62502 -65.41,-1.85549 -2.88,0 -5.24,1.23047 -7.09,3.71089 -1.86,2.461 -2.777,5.336 -2.777,8.629 0.399,5.3515 1.547,8.5351 3.387,9.5703 1.86,1.0234 5.45,1.5351 10.81,1.5351 8.63,0 12.95,2.875 12.95,8.6485 0,4.1054 -2.89,10.0664 -8.64,17.8828 L 969.902,122.77 916.844,58.6055 c -7,-9.0469 -10.492,-15.2149 -10.492,-18.5078 0,-2.875 2.054,-4.9375 6.175,-6.168 4.11,-1.2305 10.696,-1.8555 19.739,-1.8555 h 3.707 c 3.285,0 5.648,-0.6054 7.097,-1.8515 1.43,-1.2344 2.356,-4.3164 2.774,-9.2539 0,-2.879 -0.723,-5.6602 -2.16,-8.3282 -1.446,-2.66794 -3.602,-4.01169 -6.481,-4.01169 -23.441,1.23047 -40.719,1.85549 -51.824,1.85549 -11.109,0 -28.801,-0.62502 -53.063,-1.85549 -2.882,0 -5.144,1.34375 -6.789,4.01169"
         style="fill:#2d5840;fill-opacity:1;fill-rule:nonzero;stroke:none"
         id="path18" /><path
         d="m 1208.67,379.75 c -7.82,7.191 -11.72,16.141 -11.72,26.848 0,9.445 4.72,17.882 14.18,25.285 9.46,7.414 20.16,11.105 32.09,11.105 10.28,0 18.71,-3.597 25.29,-10.789 6.58,-7.207 9.88,-16.347 9.88,-27.453 0,-9.879 -3.91,-18.316 -11.72,-25.301 -7.82,-7 -17.49,-10.484 -29,-10.484 -11.52,0 -21.19,3.598 -29,10.789 z M 1169.49,12.3398 c -1.85,2.461 -2.78,5.336 -2.78,8.629 0.41,5.3515 1.64,8.5351 3.7,9.5703 2.06,1.0234 5.76,1.5351 11.11,1.5351 10.69,0 18.3,1.8555 22.83,5.5625 4.52,3.6914 7.09,8.0235 7.71,12.9453 0.62,4.9375 0.93,12.7539 0.93,23.4453 V 215.316 c 0,10.692 -0.31,18.524 -0.93,23.446 -0.62,4.937 -3.19,9.269 -7.71,12.961 -4.53,3.707 -12.14,5.562 -22.83,5.562 -4.94,0 -8.64,0.703 -11.11,2.156 -2.47,1.438 -3.7,4.829 -3.7,10.18 0,2.461 0.83,4.828 2.47,7.098 1.64,2.254 4.11,3.594 7.4,4.011 25.92,3.692 48.13,9.043 66.64,16.043 5.76,2.047 10.49,3.278 14.19,3.692 h 1.85 c 6.58,0 9.87,-3.914 9.87,-11.711 V 74.0273 c 0,-10.6914 0.41,-18.5078 1.24,-23.4453 0.81,-4.9218 3.49,-9.2539 8.02,-12.9453 4.52,-3.707 12.12,-5.5625 22.83,-5.5625 h 3.7 c 3.28,0 5.75,-0.6054 7.4,-1.8515 1.65,-1.2344 2.68,-4.3164 3.08,-9.2539 0,-3.293 -0.82,-6.168 -2.46,-8.629 -1.65,-2.48042 -4.12,-3.71089 -7.4,-3.71089 -23.87,1.23047 -45.46,1.85549 -64.79,1.85549 -18.51,0 -39.9,-0.62502 -64.17,-1.85549 -2.88,0 -5.24,1.23047 -7.09,3.71089"
         style="fill:#2d5840;fill-opacity:1;fill-rule:nonzero;stroke:none"
         id="path20" /><path
         d="m 1444.97,165.344 c -26.74,73.625 -46.27,126.89 -58.62,159.797 -7,17.691 -13.78,30.031 -20.36,37.031 -6.58,6.98 -16.25,11.711 -29,14.191 -1.64,0.399 -4.11,0.926 -7.39,1.532 -3.3,0.625 -5.46,1.855 -6.49,3.707 -1.03,1.855 -1.54,4.828 -1.54,8.953 0,4.937 1.33,8.211 4.01,9.859 2.67,1.645 6.88,2.477 12.65,2.477 30.85,0 54.29,-4.731 70.34,-14.192 16.04,-9.461 28.79,-26.32 38.25,-50.597 l 89.46,-240.6176 h 1.86 l 85.14,247.4106 c 2.47,6.984 3.7,12.335 3.7,16.046 0,5.75 -2.37,9.555 -7.09,11.411 -4.74,1.851 -12.65,2.781 -23.76,2.781 h -3.7 c -4.12,0 -7,0.703 -8.63,2.156 -1.66,1.438 -2.69,5.035 -3.09,10.785 0,3.711 0.92,6.891 2.77,9.574 1.86,2.668 4.42,4.012 7.71,4.012 26.74,-1.246 49.16,-1.855 67.25,-1.855 7.82,0 22.83,0.402 45.05,1.23 l 12.96,0.625 c 3.7,0 6.47,-1.344 8.32,-4.012 1.86,-2.683 2.78,-5.863 2.78,-9.574 -0.42,-5.75 -1.45,-9.347 -3.09,-10.785 -1.64,-1.453 -4.53,-2.156 -8.63,-2.156 -17.7,0 -31.16,-2.895 -40.41,-8.649 -9.26,-5.769 -17.18,-16.875 -23.76,-33.32 -12.34,-33.723 -32.19,-88.328 -59.54,-163.809 -27.36,-75.48 -47.2,-130.4878 -59.54,-165.03859 h -29 C 1491.25,38.0352 1471.7,91.7188 1444.97,165.344"
         style="fill:#2d5840;fill-opacity:1;fill-rule:nonzero;stroke:none"
         id="path22" /><path
         d="m 1843.54,182.012 c 20.98,0 32.08,8.629 33.32,25.906 0,18.922 -5.14,34.949 -15.42,48.121 -10.29,13.168 -24.9,19.75 -43.81,19.75 -20.98,0 -38.25,-8.324 -51.83,-24.992 -13.57,-16.652 -21.18,-39.586 -22.82,-68.785 z M 1745.75,22.8203 c -21.59,13.168 -37.95,31.0508 -49.05,53.6836 -11.1,22.6133 -16.66,47.7031 -16.66,75.2691 0,24.262 5.65,47.61 16.97,70.032 11.3,22.406 27.45,40.609 48.43,54.609 20.98,13.969 45.04,20.969 72.19,20.969 36.6,0 64.79,-9.367 84.53,-28.067 19.74,-18.726 31.05,-43.914 33.93,-75.589 0,-13.571 -3.7,-22.821 -11.11,-27.758 -7.4,-4.942 -18.1,-7.403 -32.08,-7.403 h -149.92 c 0,-38.257 7.91,-68.5894 23.75,-91.0113 15.83,-22.4219 40.41,-33.625 73.73,-33.625 17.68,0 32.7,3.8008 45.04,11.4101 12.34,7.6055 24.06,20.4571 35.17,38.5625 2.05,2.0625 4.1,3.086 6.17,3.086 2.87,0 5.34,-0.832 7.4,-2.461 4.11,-2.4804 6.17,-6.1718 6.17,-11.1093 0,-2.4766 -0.41,-4.3164 -1.24,-5.5625 -12.75,-20.5664 -28.9,-36.5 -48.43,-47.8164 -19.54,-11.29691 -41.65,-16.95707 -66.32,-16.95707 -30.85,0 -57.08,6.58594 -78.67,19.73827"
         style="fill:#2d5840;fill-opacity:1;fill-rule:nonzero;stroke:none"
         id="path24" /><path
         d="m 2033.58,22.2148 c -14.4,14.7969 -21.6,35.9727 -21.6,63.543 V 267.145 l -35.79,-1.231 c -2.47,0 -4.53,1.137 -6.16,3.402 -1.65,2.254 -2.47,4.829 -2.47,7.704 0,3.71 0.72,6.89 2.16,9.574 1.43,2.668 3.6,4.203 6.47,4.621 14.4,2.875 25.61,7.492 33.63,13.887 8.02,6.359 13.89,13.359 17.59,20.964 3.7,7.61 8.22,19.227 13.57,34.875 2.06,5.336 6.58,8.02 13.57,8.02 2.88,0 5.76,-0.734 8.64,-2.172 2.88,-1.437 4.32,-3.598 4.32,-6.473 l -4.32,-70.336 72.19,4.317 h 1.24 c 5.33,0 8.02,-3.914 8.02,-11.715 0,-4.539 -0.73,-8.758 -2.17,-12.656 -1.44,-3.914 -3.19,-5.867 -5.24,-5.867 l -69.1,1.855 V 78.3555 c 0,-13.5821 2.78,-24.8985 8.33,-33.9453 5.55,-9.043 14.7,-13.5664 27.46,-13.5664 12.73,0 24.06,2.2539 33.93,6.7929 5.34,2.0469 8.63,3.086 9.87,3.086 2.87,0 5.14,-1.1368 6.79,-3.4063 1.63,-2.2539 3.28,-5.2422 4.93,-8.9336 0.4,-0.832 0.62,-1.8555 0.62,-3.082 0,-1.6641 -1.23,-3.5 -3.7,-5.5625 C 2144.42,11.9219 2133.22,6.67969 2122.74,4.01172 2112.24,1.34375 2099.79,0 2085.4,0 c -20.16,0 -37.43,7.39844 -51.82,22.2148"
         style="fill:#2d5840;fill-opacity:1;fill-rule:nonzero;stroke:none"
         id="path26" /><path
         d="m 1188.93,464.738 c -1.48,1.129 -16.8,2.239 -29.41,7.555 -12.61,5.316 -28.22,19.023 -32.12,19.676 -3.9,0.656 -3.18,-4.965 -42.31,-12.414 -26.4,-5.024 -47.43,3.851 -58.35,10.164 5.21,6.797 9.35,13.629 12.45,20.07 8.03,16.695 13.18,38.219 15.83,51.281 v 0 l 0.49,2.313 c 1.94,-0.106 3.09,-0.086 3.2,-0.024 0.4,0.262 0.92,0.965 1.44,2.149 0.53,1.18 1.06,2.84 1.46,5.035 0.14,0.75 0.24,1.41 0.34,2.031 -0.01,0 -0.02,0 -0.03,-0.004 0.5,3.36 0.43,4.969 0.17,5.434 -0.07,0.121 -1.29,0.309 -3.33,0.633 1.12,4.707 2.1,8.508 2.96,10.804 4.03,10.778 18.19,22.207 25.99,26.219 7.8,4.012 33.54,4.457 37.3,5.926 1.67,0.656 4.24,3.039 6.31,5.504 -1.87,-3.141 -3.91,-7.238 -3.56,-11.922 0.8,-10.785 13.02,-9.934 16.77,-2.988 3.42,6.324 0.92,28.91 -7.44,28.754 -3.86,-0.075 -8.19,-0.95 -12.46,-2.141 -0.67,0.488 -1.05,0.328 -1.07,-0.324 -6.92,-2.028 -13.52,-4.817 -17.4,-6.614 -4.14,-0.097 -7.94,-0.027 -10.65,0.411 -5.64,0.906 -18.41,11.097 -15.58,11.211 2.76,0.113 8.52,0.648 13.36,1.855 8.64,2.152 35.18,11.258 39.02,19.422 2.29,4.859 3.42,12.848 3.21,19.539 l 0.04,0.008 c -0.05,7.215 -0.97,12.101 -4.59,12.082 -1.18,-0.004 -5.85,-1.375 -9.82,-3.094 -13.22,-3.754 -34.98,-9.766 -36.86,-9.621 -2.46,0.191 -22.96,8.199 -28.83,8.578 -3.42,0.219 -32.19,-7.359 -33.45,-6.918 -1.25,0.445 -19.85,7.563 -22.877,8.242 -3.024,0.68 -21.055,-2.984 -28.434,-5.39 -7.383,-2.407 -8.015,-4.071 2.742,-10.356 3.727,-2.176 7.247,-4.254 10.418,-6.211 -12.371,-0.879 -27.019,-4.711 -26.734,-9.246 0.227,-3.558 12.613,-6.984 34.887,-17.496 -3.907,-9.031 -8.258,-17.258 -13.36,-24.59 -1.211,1.321 -2.16,2.289 -2.629,2.407 -0.539,0.132 -2.793,-2.547 -5.054,-5.586 0,0.003 -0.004,0.007 -0.004,0.011 -0.039,-0.054 -0.09,-0.133 -0.129,-0.191 -2.609,-3.52 -5.18,-7.465 -5.109,-8.168 0.023,-0.223 0.605,-1.106 1.429,-2.231 -17.605,-17.226 -42.761,-27.238 -82.261,-28.847 -33.579,-1.367 -94.61,13.976 -132.641,3.277 0,0.004 0.039,0.051 0.039,0.051 0,0 -0.336,-0.098 -0.977,-0.262 -5.07,-1.312 -29.281,-7.015 -58.093,-5.023 -25.856,1.789 -55.418,9.773 -78.258,32.781 -28.93,29.145 -30.879,57.266 -33.996,68.879 -0.239,0.891 -0.625,1.301 -1.059,1.289 -0.43,0.004 -0.906,-0.418 -1.328,-1.238 -4.016,-7.871 -13.676,-34.989 -3.953,-58.422 0,0 -13.699,7.793 -4.715,-10.098 7.859,-15.652 20.902,-31.476 50.168,-44.965 0,0 -7.477,-0.468 -6.102,-3.8 3.735,-9.04 43.219,-18.711 62.614,-12.997 -5.406,-1.957 -13.293,-10.238 0.16,-9.46 12.301,0.707 22.699,3.687 30.902,7.078 -10.566,-18.938 -11.758,-39.032 -11.539,-50.211 -4.582,-28.364 -7.5,-50.426 -19.043,-60.489 -13.683,-11.929 -35.207,-16.48 -49.211,-11.339 -14.004,5.136 -15.054,-27.266 -26.476,-41.676 -11.422,-14.414 -26.266,-12.485 -35.489,-8.086 -7.312,3.48 -12.582,-13.684 -7.933,-22.766 0.051,-0.101 0.09,-0.207 0.14,-0.304 0.555,-1.012 1.247,-1.891 2.071,-2.641 0.16,-0.149 0.336,-0.274 0.508,-0.406 0.886,-0.703 1.871,-1.293 3.066,-1.625 0,0 0,0 0.004,0 13.113,-3.621 36.09,2.867 49.726,15.578 1.704,1.59 3.333,3.285 4.891,5.039 3.121,3.5 5.949,7.223 8.492,10.762 6.352,8.843 10.907,16.535 13.688,16.714 0.226,0.016 0.617,0.004 1.039,-0.011 0.387,-0.016 0.828,-0.043 1.324,-0.075 10.145,-0.691 46.719,-5.304 62.524,-3.328 11.652,1.457 31.175,24.078 54.308,47.832 6.305,-6.046 12.094,-12.488 14.82,-17.933 7.649,-15.278 -8.253,-34.887 -9.378,-39.164 -1.125,-4.282 64.082,-63.84 68.425,-66.016 4.348,-2.168 32.555,0.711 34.907,2.266 2.351,1.554 -10.95,25.578 -13.219,25.433 -2.27,-0.148 -17.918,-10.101 -19.418,-8.621 -1.5,1.481 -37.098,42.106 -33.485,48.649 3.411,6.175 40.344,19.148 39.543,76.703 31.336,-9.574 72.727,-20.145 103.911,-15.625 0.296,0.043 0.613,0.062 0.906,0.101 1.148,0.168 2.215,0.411 3.336,0.594 10.57,-10.887 21.258,-21.058 25.543,-22.488 9.676,-3.231 106.223,5.137 109.523,2.898 1.95,-1.328 3.34,-12.386 8.77,-23.297 0.03,-0.066 0.06,-0.132 0.1,-0.199 1.82,-3.621 4.09,-7.191 6.98,-10.398 0.11,-0.125 0.21,-0.254 0.33,-0.379 1.39,-1.508 2.94,-2.906 4.63,-4.195 0.24,-0.188 0.5,-0.36 0.75,-0.536 1.75,-1.265 3.62,-2.437 5.73,-3.39 5.6,-2.532 10.69,-3.426 15.15,-3.305 13.39,0.359 21.25,9.871 21.11,11.969 -0.01,0.277 -0.28,0.687 -0.68,1.164 -0.01,-0.016 -0.04,-0.031 -0.05,-0.047 -3.34,4.184 -20.84,15.957 -29.58,28.109 -9.63,13.399 -16.15,27.344 -20.01,27.446 -2.22,0.054 -20.72,-4.055 -40.49,-3.368 35.25,6.473 60.65,25.899 62.72,25.489 2.66,-0.528 16.34,-22.25 37.45,-26.313 21.12,-4.062 32.33,20.324 30.86,21.457"
         style="fill:#bf935b;fill-opacity:1;fill-rule:nonzero;stroke:none"
         id="path28" /></g></g></svg>
